<mxfile host="app.diagrams.net" modified="2024-06-16T17:20:09.768Z" agent="Mozilla/5.0 (Windows NT 10.0; Win64; x64) AppleWebKit/537.36 (KHTML, like Gecko) Chrome/126.0.0.0 Safari/537.36" etag="QaZsHntc9pfVanMaIyF2" version="24.5.2" type="device">
  <diagram name="Page-1" id="-xiNyq-ZSrG1IBJeAhxN">
    <mxGraphModel dx="1434" dy="786" grid="1" gridSize="10" guides="1" tooltips="1" connect="1" arrows="1" fold="1" page="1" pageScale="1" pageWidth="850" pageHeight="1100" math="0" shadow="0">
      <root>
        <mxCell id="0" />
        <mxCell id="1" parent="0" />
        <mxCell id="nAVbqyg0xFE-0oq1EsJC-9" style="edgeStyle=orthogonalEdgeStyle;rounded=0;orthogonalLoop=1;jettySize=auto;html=1;entryX=0;entryY=0.5;entryDx=0;entryDy=0;" edge="1" parent="1" source="nAVbqyg0xFE-0oq1EsJC-1" target="nAVbqyg0xFE-0oq1EsJC-2">
          <mxGeometry relative="1" as="geometry" />
        </mxCell>
        <mxCell id="nAVbqyg0xFE-0oq1EsJC-1" value="Utilizator" style="sketch=0;outlineConnect=0;fontColor=#232F3E;gradientColor=none;fillColor=#232F3D;strokeColor=none;dashed=0;verticalLabelPosition=bottom;verticalAlign=top;align=center;html=1;fontSize=12;fontStyle=0;aspect=fixed;pointerEvents=1;shape=mxgraph.aws4.user;" vertex="1" parent="1">
          <mxGeometry x="10" y="416" width="48" height="48" as="geometry" />
        </mxCell>
        <mxCell id="nAVbqyg0xFE-0oq1EsJC-10" style="edgeStyle=orthogonalEdgeStyle;rounded=0;orthogonalLoop=1;jettySize=auto;html=1;exitX=1;exitY=0.5;exitDx=0;exitDy=0;entryX=0;entryY=0.5;entryDx=0;entryDy=0;" edge="1" parent="1" source="nAVbqyg0xFE-0oq1EsJC-2" target="nAVbqyg0xFE-0oq1EsJC-3">
          <mxGeometry relative="1" as="geometry" />
        </mxCell>
        <mxCell id="nAVbqyg0xFE-0oq1EsJC-2" value="Frontend" style="whiteSpace=wrap;html=1;aspect=fixed;" vertex="1" parent="1">
          <mxGeometry x="120" y="400" width="80" height="80" as="geometry" />
        </mxCell>
        <mxCell id="nAVbqyg0xFE-0oq1EsJC-11" style="edgeStyle=orthogonalEdgeStyle;rounded=0;orthogonalLoop=1;jettySize=auto;html=1;entryX=0;entryY=0.5;entryDx=0;entryDy=0;" edge="1" parent="1" source="nAVbqyg0xFE-0oq1EsJC-3" target="nAVbqyg0xFE-0oq1EsJC-4">
          <mxGeometry relative="1" as="geometry">
            <Array as="points">
              <mxPoint x="320" y="200" />
            </Array>
          </mxGeometry>
        </mxCell>
        <mxCell id="nAVbqyg0xFE-0oq1EsJC-21" value="Apel prin REST" style="edgeLabel;html=1;align=center;verticalAlign=middle;resizable=0;points=[];" vertex="1" connectable="0" parent="nAVbqyg0xFE-0oq1EsJC-11">
          <mxGeometry x="-0.5875" y="-1" relative="1" as="geometry">
            <mxPoint as="offset" />
          </mxGeometry>
        </mxCell>
        <mxCell id="nAVbqyg0xFE-0oq1EsJC-12" style="edgeStyle=orthogonalEdgeStyle;rounded=0;orthogonalLoop=1;jettySize=auto;html=1;entryX=0;entryY=0.5;entryDx=0;entryDy=0;" edge="1" parent="1" source="nAVbqyg0xFE-0oq1EsJC-3" target="nAVbqyg0xFE-0oq1EsJC-5">
          <mxGeometry relative="1" as="geometry" />
        </mxCell>
        <mxCell id="nAVbqyg0xFE-0oq1EsJC-13" style="edgeStyle=orthogonalEdgeStyle;rounded=0;orthogonalLoop=1;jettySize=auto;html=1;entryX=0;entryY=0.5;entryDx=0;entryDy=0;" edge="1" parent="1" source="nAVbqyg0xFE-0oq1EsJC-3" target="nAVbqyg0xFE-0oq1EsJC-8">
          <mxGeometry relative="1" as="geometry" />
        </mxCell>
        <mxCell id="nAVbqyg0xFE-0oq1EsJC-14" style="edgeStyle=orthogonalEdgeStyle;rounded=0;orthogonalLoop=1;jettySize=auto;html=1;exitX=1;exitY=0.5;exitDx=0;exitDy=0;entryX=0;entryY=0.5;entryDx=0;entryDy=0;" edge="1" parent="1" source="nAVbqyg0xFE-0oq1EsJC-3" target="nAVbqyg0xFE-0oq1EsJC-6">
          <mxGeometry relative="1" as="geometry" />
        </mxCell>
        <mxCell id="nAVbqyg0xFE-0oq1EsJC-15" style="edgeStyle=orthogonalEdgeStyle;rounded=0;orthogonalLoop=1;jettySize=auto;html=1;entryX=0;entryY=0.5;entryDx=0;entryDy=0;" edge="1" parent="1" source="nAVbqyg0xFE-0oq1EsJC-3" target="nAVbqyg0xFE-0oq1EsJC-7">
          <mxGeometry relative="1" as="geometry">
            <Array as="points">
              <mxPoint x="320" y="680" />
            </Array>
          </mxGeometry>
        </mxCell>
        <mxCell id="nAVbqyg0xFE-0oq1EsJC-22" value="Apel prin REST" style="edgeLabel;html=1;align=center;verticalAlign=middle;resizable=0;points=[];" vertex="1" connectable="0" parent="nAVbqyg0xFE-0oq1EsJC-15">
          <mxGeometry x="-0.625" relative="1" as="geometry">
            <mxPoint as="offset" />
          </mxGeometry>
        </mxCell>
        <mxCell id="nAVbqyg0xFE-0oq1EsJC-3" value="Api Gateway" style="whiteSpace=wrap;html=1;aspect=fixed;" vertex="1" parent="1">
          <mxGeometry x="280" y="400" width="80" height="80" as="geometry" />
        </mxCell>
        <mxCell id="nAVbqyg0xFE-0oq1EsJC-16" style="edgeStyle=orthogonalEdgeStyle;rounded=0;orthogonalLoop=1;jettySize=auto;html=1;entryX=1;entryY=0.5;entryDx=0;entryDy=0;" edge="1" parent="1" source="nAVbqyg0xFE-0oq1EsJC-4" target="nAVbqyg0xFE-0oq1EsJC-8">
          <mxGeometry relative="1" as="geometry">
            <Array as="points">
              <mxPoint x="560" y="200" />
              <mxPoint x="560" y="440" />
            </Array>
          </mxGeometry>
        </mxCell>
        <mxCell id="nAVbqyg0xFE-0oq1EsJC-4" value="Utilizator" style="whiteSpace=wrap;html=1;aspect=fixed;" vertex="1" parent="1">
          <mxGeometry x="440" y="160" width="80" height="80" as="geometry" />
        </mxCell>
        <mxCell id="nAVbqyg0xFE-0oq1EsJC-5" value="Produs" style="whiteSpace=wrap;html=1;aspect=fixed;" vertex="1" parent="1">
          <mxGeometry x="440" y="280" width="80" height="80" as="geometry" />
        </mxCell>
        <mxCell id="nAVbqyg0xFE-0oq1EsJC-17" style="edgeStyle=orthogonalEdgeStyle;rounded=0;orthogonalLoop=1;jettySize=auto;html=1;entryX=1;entryY=0.5;entryDx=0;entryDy=0;" edge="1" parent="1" source="nAVbqyg0xFE-0oq1EsJC-6" target="nAVbqyg0xFE-0oq1EsJC-8">
          <mxGeometry relative="1" as="geometry">
            <Array as="points">
              <mxPoint x="560" y="560" />
              <mxPoint x="560" y="440" />
            </Array>
          </mxGeometry>
        </mxCell>
        <mxCell id="nAVbqyg0xFE-0oq1EsJC-19" style="edgeStyle=orthogonalEdgeStyle;rounded=0;orthogonalLoop=1;jettySize=auto;html=1;entryX=1;entryY=0.5;entryDx=0;entryDy=0;strokeColor=#00CCCC;" edge="1" parent="1" source="nAVbqyg0xFE-0oq1EsJC-6" target="nAVbqyg0xFE-0oq1EsJC-5">
          <mxGeometry relative="1" as="geometry">
            <Array as="points">
              <mxPoint x="640" y="560" />
              <mxPoint x="640" y="320" />
            </Array>
          </mxGeometry>
        </mxCell>
        <mxCell id="nAVbqyg0xFE-0oq1EsJC-20" value="Apel prin Feign" style="edgeLabel;html=1;align=center;verticalAlign=middle;resizable=0;points=[];" vertex="1" connectable="0" parent="nAVbqyg0xFE-0oq1EsJC-19">
          <mxGeometry x="0.0208" y="-3" relative="1" as="geometry">
            <mxPoint as="offset" />
          </mxGeometry>
        </mxCell>
        <mxCell id="nAVbqyg0xFE-0oq1EsJC-6" value="Motor de căutare" style="whiteSpace=wrap;html=1;aspect=fixed;" vertex="1" parent="1">
          <mxGeometry x="440" y="520" width="80" height="80" as="geometry" />
        </mxCell>
        <mxCell id="nAVbqyg0xFE-0oq1EsJC-18" style="edgeStyle=orthogonalEdgeStyle;rounded=0;orthogonalLoop=1;jettySize=auto;html=1;exitX=1;exitY=0.5;exitDx=0;exitDy=0;entryX=1;entryY=0.5;entryDx=0;entryDy=0;" edge="1" parent="1" source="nAVbqyg0xFE-0oq1EsJC-7" target="nAVbqyg0xFE-0oq1EsJC-8">
          <mxGeometry relative="1" as="geometry">
            <Array as="points">
              <mxPoint x="560" y="680" />
              <mxPoint x="560" y="440" />
            </Array>
          </mxGeometry>
        </mxCell>
        <mxCell id="nAVbqyg0xFE-0oq1EsJC-7" value="Chat" style="whiteSpace=wrap;html=1;aspect=fixed;" vertex="1" parent="1">
          <mxGeometry x="440" y="640" width="80" height="80" as="geometry" />
        </mxCell>
        <mxCell id="nAVbqyg0xFE-0oq1EsJC-8" value="Librarie Comună" style="whiteSpace=wrap;html=1;aspect=fixed;" vertex="1" parent="1">
          <mxGeometry x="440" y="400" width="80" height="80" as="geometry" />
        </mxCell>
      </root>
    </mxGraphModel>
  </diagram>
</mxfile>
